<?xml version="1.0" encoding="UTF-8" standalone="no"?>
<!-- Created with Inkscape (http://www.inkscape.org/) -->

<svg
   xmlns:dc="http://purl.org/dc/elements/1.1/"
   xmlns:cc="http://creativecommons.org/ns#"
   xmlns:rdf="http://www.w3.org/1999/02/22-rdf-syntax-ns#"
   xmlns:svg="http://www.w3.org/2000/svg"
   xmlns="http://www.w3.org/2000/svg"
   xmlns:sodipodi="http://sodipodi.sourceforge.net/DTD/sodipodi-0.dtd"
   xmlns:inkscape="http://www.inkscape.org/namespaces/inkscape"
   width="256px"
   height="256px"
   viewBox="0 0 256 256"
   version="1.1"
   id="SVGRoot"
   inkscape:version="0.92.3 (2405546, 2018-03-11)"
   sodipodi:docname="paraphilic-clinic-logo.svg">
  <title
     id="title4855">Paraphilic Clinic Logo</title>
  <sodipodi:namedview
     id="base"
     pagecolor="#ffffff"
     bordercolor="#666666"
     borderopacity="1.0"
     inkscape:pageopacity="0"
     inkscape:pageshadow="2"
     inkscape:zoom="2.8284271"
     inkscape:cx="135.44875"
     inkscape:cy="110.95544"
     inkscape:document-units="px"
     inkscape:current-layer="layer1"
     showgrid="true"
     inkscape:window-width="1920"
     inkscape:window-height="1017"
     inkscape:window-x="1912"
     inkscape:window-y="-8"
     inkscape:window-maximized="1"
     inkscape:grid-bbox="true"
     inkscape:pagecheckerboard="true"
     borderlayer="false"
     showborder="true" />
  <defs
     id="defs3794" />
  <metadata
     id="metadata3797">
    <rdf:RDF>
      <cc:Work
         rdf:about="">
        <dc:format>image/svg+xml</dc:format>
        <dc:type
           rdf:resource="http://purl.org/dc/dcmitype/StillImage" />
        <dc:title>Paraphilic Clinic Logo</dc:title>
      </cc:Work>
    </rdf:RDF>
  </metadata>
  <g
     id="layer1"
     inkscape:groupmode="layer"
     inkscape:label="Layer 1"
     style="display:inline">
    <g
       id="g3766"
       transform="translate(15.202796,1.0606602)">
      <a
         id="a49">
        <path
           inkscape:connector-curvature="0"
           style="display:inline;fill:#ffffff;fill-opacity:1;stroke:#fbfbfb;stroke-width:1.01394975px;stroke-linecap:butt;stroke-linejoin:miter;stroke-opacity:1"
           d="M 112.81334,2.2390836 C 108.57333,2.3519589 104.31426,4.2080518 101.52008,7.9925239 64.457111,39.440545 47.117147,35.36163 27.79499,36.342775 11.255527,37.137939 5.3064911,39.767851 3.7071566,48.783764 2.2309349,82.08405 -14.2556,221.59846 107.02747,251.04416 c 3.33561,1.15037 8.14832,1.30748 11.0531,0.30791 C 177.89649,225.18366 232.34194,206.25126 222.61937,49.711983 220.96201,44.503051 219.8249,38.967568 208.64608,37.29603 176.47284,37.388889 147.4035,31.573827 125.00238,8.3034067 122.39992,4.2227519 117.61866,2.1111473 112.81334,2.2390836 Z m 0.19595,18.2695694 c 24.61925,23.671473 55.7291,35.165606 92.07865,33.67347 4.34927,69.785097 -2.40691,121.024397 -37.06661,150.236307 -6.65529,-18.91388 -22.06954,-20.47737 -38.814,-23.59132 -6.3403,19.34161 -26.25983,18.46665 -34.155267,0 -20.063017,4.40198 -30.798152,6.42851 -38.29685,23.59132 C 33.99866,183.62411 16.209916,149.24073 20.78773,53.684127 57.095406,55.648731 87.741737,44.369488 113.00929,20.508653 Z"
           id="path4878" />
      </a>
      <path
         sodipodi:nodetypes="cccccc"
         inkscape:connector-curvature="0"
         id="path4864"
         d="m 67.849996,91.206167 -0.18297,10.711143 c 2.056445,2.94305 9.559366,0.65918 15.735312,-0.35119 l 3.842345,5.79456 c -6.205139,5.89922 -10.989941,12.94043 -30.921716,15.45213 0.12687,-12.31839 1.752498,-23.917615 11.527029,-31.606643 z"
         style="display:inline;fill:#ffffff;fill-opacity:1;stroke:#ffffff;stroke-width:1.01394975px;stroke-linecap:butt;stroke-linejoin:miter;stroke-opacity:1" />
      <path
         sodipodi:nodetypes="ccccc"
         inkscape:connector-curvature="0"
         id="path4866"
         d="m 89.2296,100.61824 c 22.71204,31.42172 52.48035,25.86712 80.73215,21.72845 0.84555,-11.03605 -1.93745,-21.20153 -10.73841,-29.923188 v 10.429658 c -22.21933,-2.19601 -46.43395,-6.294682 -69.99374,-2.23492 z"
         style="display:inline;fill:#ffffff;fill-opacity:1;stroke:#ffffff;stroke-width:1.01394975px;stroke-linecap:butt;stroke-linejoin:miter;stroke-opacity:1" />
      <path
         sodipodi:nodetypes="cccc"
         inkscape:connector-curvature="0"
         id="path4870"
         d="m 90.721098,111.5749 c -5.470525,4.86293 -10.807651,9.88133 -17.930941,12.81824 15.808936,63.70529 69.493883,49.53999 77.944693,5.97014 -20.69204,0.83543 -42.3803,-0.43208 -60.013752,-18.78838 z"
         style="display:inline;fill:none;stroke:#000000;stroke-width:1.01394975px;stroke-linecap:butt;stroke-linejoin:miter;stroke-opacity:0" />
      <path
         sodipodi:nodetypes="cccc"
         inkscape:connector-curvature="0"
         id="path4872"
         d="m 156.5064,129.67229 12.67909,-2.23493 c -1.33865,10.22274 -9.91615,43.40559 -34.02654,37.37295 6.98821,-7.73249 13.71934,-7.44723 21.34745,-35.13802 z"
         style="display:inline;fill:#ffffff;fill-opacity:1;stroke:#f8f8f8;stroke-width:1.01394975px;stroke-linecap:butt;stroke-linejoin:miter;stroke-opacity:1" />
      <path
         sodipodi:nodetypes="ccccc"
         inkscape:connector-curvature="0"
         id="path4874"
         d="m 102.81434,170.39764 c 5.08116,1.33181 9.36424,3.42952 19.40677,0 3.32139,8.91636 2.37547,8.4136 2.45819,10.18133 -4.71218,12.75438 -19.81374,14.39857 -24.19377,-1.24163 0.11279,-3.82888 1.20229,-6.40797 2.32881,-8.9397 z"
         style="display:inline;fill:#ffffff;fill-opacity:1;stroke:#ffffff;stroke-width:1.01394975px;stroke-linecap:butt;stroke-linejoin:miter;stroke-opacity:1" />
      <path
         sodipodi:nodetypes="ccccc"
         inkscape:connector-curvature="0"
         id="path4012"
         d="m 73.058964,95.972011 c 25.135431,-4.017386 51.567056,-5.369232 81.508426,0.496652 V 74.616041 c -29.57515,-19.662281 -56.318674,-15.320159 -81.767186,0 z"
         style="display:inline;fill:#e61212;fill-opacity:1;stroke:#e61212;stroke-width:1.01394975px;stroke-linecap:butt;stroke-linejoin:miter;stroke-opacity:1" />
      <path
         inkscape:connector-curvature="0"
         id="path4853"
         d="m 110.90467,68.002485 h 5.79616 v 6.953107 h 7.4522 v 4.966501 h -7.4522 v 6.95311 h -5.79616 v -6.95311 h -7.4522 v -4.966501 h 7.4522 z"
         style="display:inline;fill:#ffffff;stroke:#ffffff;stroke-width:1.01394975px;stroke-linecap:butt;stroke-linejoin:miter;stroke-opacity:1" />
      <path
         inkscape:connector-curvature="0"
         id="path108"
         d="M 109.53654,166.78781 C 96.956051,165.3956 86.157822,156.06348 79.03039,140.42358 c -1.650065,-3.62078 -4.657948,-12.12892 -5.115594,-14.47006 -0.240775,-1.23169 -0.221297,-1.2552 1.897162,-2.28885 3.051078,-1.48867 6.687567,-4.04975 11.036666,-7.77278 l 3.773088,-3.22994 1.898935,1.70315 c 6.91388,6.201 13.606883,10.16931 21.692903,12.8618 8.19737,2.72958 15.93805,3.81611 27.68638,3.88626 4.3775,0.0261 7.9587,0.12654 7.95822,0.22312 -0.004,0.71774 -1.98303,7.02705 -2.89874,9.2393 -1.62337,3.92184 -2.96235,6.35429 -5.50945,10.00874 -7.77202,11.15085 -20.26273,17.49281 -31.91342,16.20349 z"
         style="display:inline;fill:#ffffff;fill-opacity:1;stroke-width:0.35848534" />
      <path
         sodipodi:nodetypes="ccscssccc"
         inkscape:connector-curvature="0"
         id="path114"
         d="m 60.466271,138.88675 c -1.53768,-4.60688 -2.966145,-9.64695 -2.776447,-9.79615 0.07483,-0.0588 1.947402,-0.5324 4.161325,-1.05237 2.213924,-0.51997 4.288215,-1.0208 4.609541,-1.11294 0.455963,-0.13076 0.726966,0.35434 1.234368,2.20953 1.103919,4.0362 4.196751,11.64672 6.603359,16.24886 3.31388,6.33712 6.315994,10.55574 12.307161,17.29426 0.64321,0.72345 1.075826,1.40523 0.961382,1.51505 -16.622035,3.29176 -23.560953,-14.9322 -27.100689,-25.30624 z"
         style="display:inline;fill:#ffffff;fill-opacity:1;stroke-width:0.35848534" />
    </g>
  </g>
</svg>
