<?xml version="1.0" encoding="UTF-8" standalone="no"?>
<!-- Created with Inkscape (http://www.inkscape.org/) -->

<svg
   xmlns:dc="http://purl.org/dc/elements/1.1/"
   xmlns:cc="http://creativecommons.org/ns#"
   xmlns:rdf="http://www.w3.org/1999/02/22-rdf-syntax-ns#"
   xmlns:svg="http://www.w3.org/2000/svg"
   xmlns="http://www.w3.org/2000/svg"
   xmlns:sodipodi="http://sodipodi.sourceforge.net/DTD/sodipodi-0.dtd"
   xmlns:inkscape="http://www.inkscape.org/namespaces/inkscape"
   version="1.1"
   id="svg2"
   width="415.53748"
   height="467.72241"
   viewBox="0 0 415.53747 467.72241"
   sodipodi:docname="under-construction.svg"
   inkscape:version="0.92.3 (2405546, 2018-03-11)">
  <metadata
     id="metadata8">
    <rdf:RDF>
      <cc:Work
         rdf:about="">
        <dc:format>image/svg+xml</dc:format>
        <dc:type
           rdf:resource="http://purl.org/dc/dcmitype/StillImage" />
        <dc:title></dc:title>
      </cc:Work>
    </rdf:RDF>
  </metadata>
  <defs
     id="defs6" />
  <sodipodi:namedview
     pagecolor="#ffffff"
     bordercolor="#666666"
     borderopacity="1"
     objecttolerance="10"
     gridtolerance="10"
     guidetolerance="10"
     inkscape:pageopacity="0"
     inkscape:pageshadow="2"
     inkscape:window-width="1920"
     inkscape:window-height="1017"
     id="namedview4"
     showgrid="false"
     inkscape:zoom="0.86764706"
     inkscape:cx="288.16149"
     inkscape:cy="34.315782"
     inkscape:window-x="1912"
     inkscape:window-y="-8"
     inkscape:window-maximized="1"
     inkscape:current-layer="layer1"
     inkscape:pagecheckerboard="true"
     fit-margin-top="0"
     fit-margin-left="0"
     fit-margin-right="0"
     fit-margin-bottom="0" />
  <g
     inkscape:groupmode="layer"
     id="layer1"
     inkscape:label="back"
     style="display:inline"
     transform="translate(-15.624552,-31.225313)">
    <path
       style="fill:#ffc700;fill-opacity:1;stroke:#000000;stroke-width:23.7;stroke-linecap:butt;stroke-linejoin:miter;stroke-miterlimit:4;stroke-dasharray:0,260.7;stroke-dashoffset:237;stroke-opacity:1"
       d="M 27.708998,93.321298 C 99.889916,90.716784 174.95393,93.87847 224.11689,45.238037 273.40291,86.513738 338.36895,102.02938 418.07988,93.321298 431.81941,449.73573 326.8141,465.02863 224.11689,486.95206 20.657351,463.32419 31.243219,267.31494 27.708998,93.321298 Z"
       id="path871"
       inkscape:connector-curvature="0"
       sodipodi:nodetypes="ccccc" />
  </g>
  <g
     inkscape:groupmode="layer"
     id="layer3"
     inkscape:label="back 1"
     transform="translate(-15.624552,-31.225313)" />
  <path
     style="fill:#000000;fill-opacity:1;stroke:#000000;stroke-width:1;stroke-linecap:butt;stroke-linejoin:miter;stroke-miterlimit:4;stroke-dasharray:none;stroke-dashoffset:0;stroke-opacity:1"
     d="m 131.8472,168.63476 c -4.6341,-37.90444 48.52196,-126.777533 30.83051,-0.14406 z"
     id="path835"
     inkscape:connector-curvature="0"
     sodipodi:nodetypes="ccc" />
  <path
     style="fill:#000000;fill-opacity:1;stroke:#0e0000;stroke-width:1;stroke-linecap:butt;stroke-linejoin:miter;stroke-miterlimit:4;stroke-dasharray:none;stroke-dashoffset:0;stroke-opacity:1"
     d="m 163.46522,97.139717 c 26.35467,-20.7174 55.19596,-28.906071 91.48044,0.40749 -12.25754,11.859813 -15.09968,36.579673 -5.09356,78.848393 h 44.82338 c 5.36525,1.81669 4.3907,11.21815 0,12.42831 H 125.36535 c -4.13782,0.63209 -9.39813,-9.85459 0,-12.42831 h 43.60092 c 7.96651,-30.95122 8.53668,-66.81536 -5.50105,-79.255883 z"
     id="path837"
     inkscape:connector-curvature="0"
     sodipodi:nodetypes="ccccccccc" />
  <path
     style="fill:#000000;fill-opacity:1;stroke:#000000;stroke-width:1;stroke-linecap:butt;stroke-linejoin:miter;stroke-miterlimit:4;stroke-dasharray:none;stroke-dashoffset:0;stroke-opacity:1"
     d="m 256.46584,169.06697 c -19.31484,-99.816063 22.88842,-76.619873 30.83051,0 z"
     id="path839"
     inkscape:connector-curvature="0"
     sodipodi:nodetypes="ccc" />
  <path
     style="fill:#000000;fill-opacity:1;stroke:#000000;stroke-width:1;stroke-linecap:butt;stroke-linejoin:miter;stroke-miterlimit:4;stroke-dasharray:none;stroke-dashoffset:0;stroke-opacity:1"
     d="m 131.99126,197.01612 h 152.1356 l -2.0273,7.56596 c 18.12516,4.4601 20.69699,32.9902 -4.88796,34.2137 -38.87743,99.06831 -121.9558,55.75078 -135.42373,0 -22.61411,-0.4259 -26.89515,-24.01012 -6.33898,-34 z"
     id="path841"
     inkscape:connector-curvature="0"
     sodipodi:nodetypes="ccccccc" />
  <path
     style="fill:#000000;fill-opacity:1;stroke:#000000;stroke-width:1;stroke-linecap:butt;stroke-linejoin:miter;stroke-miterlimit:4;stroke-dasharray:none;stroke-dashoffset:0;stroke-opacity:1"
     d="m 172.22615,307.45156 c 25.31817,-1.46393 50.64452,-3.02604 75.58852,0 v 49.30571 c -0.37212,6.74708 -4.29309,11.12827 -11.0021,13.65076 h -52.5656 c -9.76473,-2.84261 -10.64115,-8.84551 -12.02082,-14.66947 z"
     id="path843"
     inkscape:connector-curvature="0"
     sodipodi:nodetypes="ccccccc" />
  <path
     style="fill:#000000;fill-opacity:1;stroke:#000000;stroke-width:1;stroke-linecap:butt;stroke-linejoin:miter;stroke-miterlimit:4;stroke-dasharray:none;stroke-dashoffset:0;stroke-opacity:1"
     d="m 148.45419,310.34258 0.68432,131.20677 c -5.20127,-1.9668 -10.40253,-4.1801 -15.6038,-6.62712 l -4.23233,-43.49008 -9.06655,-20.57801 -11.61651,49.80029 c -7.49557,-5.38296 -14.789352,-10.91728 -21.143852,-17.15605 l 14.729142,-80.62563 z"
     id="path845-5"
     inkscape:connector-curvature="0"
     sodipodi:nodetypes="ccccccccc" />
  <path
     style="fill:#000000;fill-opacity:1;stroke:#000000;stroke-width:1;stroke-linecap:butt;stroke-linejoin:miter;stroke-miterlimit:4;stroke-dasharray:none;stroke-dashoffset:0;stroke-opacity:1"
     d="m 274.9053,307.38929 -0.68432,131.20677 c 5.20127,-1.9668 10.40253,-4.1801 15.6038,-6.62712 l 4.23233,-43.49008 9.06655,-20.57801 11.61651,49.80029 c 7.49557,-5.38296 14.78935,-10.91728 21.14385,-17.15605 l -14.72914,-80.62563 z"
     id="path845-5-9"
     inkscape:connector-curvature="0"
     sodipodi:nodetypes="ccccccccc" />
</svg>
